<svg xmlns="http://www.w3.org/2000/svg" width="400" height="400" viewBox="0 0 400 400" shape-rendering="crispEdges">
  <defs><pattern id="pfpgrid" width="16" height="16" patternUnits="userSpaceOnUse">
    <rect width="16" height="1" fill="#4a3728" opacity="0.06"/>
    <rect width="1" height="16" fill="#4a3728" opacity="0.06"/>
  </pattern></defs>
  <rect width="400" height="400" fill="#ded1ba"/>
  <rect width="400" height="400" fill="url(#pfpgrid)"/>
  <rect x="200" y="88" width="16" height="16" fill="#14120f"/><rect x="216" y="88" width="16" height="16" fill="#4a3728"/><rect x="232" y="88" width="16" height="16" fill="#4a3728"/><rect x="248" y="88" width="16" height="16" fill="#4a3728"/><rect x="264" y="88" width="16" height="16" fill="#4a3728"/><rect x="280" y="88" width="16" height="16" fill="#4a3728"/><rect x="296" y="88" width="16" height="16" fill="#4a3728"/><rect x="312" y="88" width="16" height="16" fill="#14120f"/><rect x="184" y="104" width="16" height="16" fill="#14120f"/><rect x="200" y="104" width="16" height="16" fill="#4a3728"/><rect x="216" y="104" width="16" height="16" fill="#4a3728"/><rect x="232" y="104" width="16" height="16" fill="#4a3728"/><rect x="248" y="104" width="16" height="16" fill="#4a3728"/><rect x="264" y="104" width="16" height="16" fill="#4a3728"/><rect x="280" y="104" width="16" height="16" fill="#4a3728"/><rect x="296" y="104" width="16" height="16" fill="#4a3728"/><rect x="312" y="104" width="16" height="16" fill="#4a3728"/><rect x="328" y="104" width="16" height="16" fill="#14120f"/><rect x="152" y="120" width="16" height="16" fill="#14120f"/><rect x="168" y="120" width="16" height="16" fill="#7a5537"/><rect x="184" y="120" width="16" height="16" fill="#4a3728"/><rect x="200" y="120" width="16" height="16" fill="#4a3728"/><rect x="216" y="120" width="16" height="16" fill="#4a3728"/><rect x="232" y="120" width="16" height="16" fill="#4a3728"/><rect x="248" y="120" width="16" height="16" fill="#4a3728"/><rect x="264" y="120" width="16" height="16" fill="#4a3728"/><rect x="280" y="120" width="16" height="16" fill="#4a3728"/><rect x="296" y="120" width="16" height="16" fill="#4a3728"/><rect x="312" y="120" width="16" height="16" fill="#4a3728"/><rect x="328" y="120" width="16" height="16" fill="#4a3728"/><rect x="344" y="120" width="16" height="16" fill="#7a5537"/><rect x="360" y="120" width="16" height="16" fill="#14120f"/><rect x="136" y="136" width="16" height="16" fill="#14120f"/><rect x="152" y="136" width="16" height="16" fill="#7a5537"/><rect x="168" y="136" width="16" height="16" fill="#7a5537"/><rect x="184" y="136" width="16" height="16" fill="#2f2119"/><rect x="200" y="136" width="16" height="16" fill="#2f2119"/><rect x="216" y="136" width="16" height="16" fill="#2f2119"/><rect x="232" y="136" width="16" height="16" fill="#2f2119"/><rect x="248" y="136" width="16" height="16" fill="#2f2119"/><rect x="264" y="136" width="16" height="16" fill="#2f2119"/><rect x="280" y="136" width="16" height="16" fill="#2f2119"/><rect x="296" y="136" width="16" height="16" fill="#2f2119"/><rect x="312" y="136" width="16" height="16" fill="#2f2119"/><rect x="328" y="136" width="16" height="16" fill="#2f2119"/><rect x="344" y="136" width="16" height="16" fill="#7a5537"/><rect x="360" y="136" width="16" height="16" fill="#7a5537"/><rect x="376" y="136" width="16" height="16" fill="#14120f"/><rect x="104" y="152" width="16" height="16" fill="#14120f"/><rect x="120" y="152" width="16" height="16" fill="#14120f"/><rect x="136" y="152" width="16" height="16" fill="#4a3728"/><rect x="152" y="152" width="16" height="16" fill="#4a3728"/><rect x="168" y="152" width="16" height="16" fill="#4a3728"/><rect x="184" y="152" width="16" height="16" fill="#4a3728"/><rect x="200" y="152" width="16" height="16" fill="#4a3728"/><rect x="216" y="152" width="16" height="16" fill="#4a3728"/><rect x="232" y="152" width="16" height="16" fill="#4a3728"/><rect x="248" y="152" width="16" height="16" fill="#4a3728"/><rect x="264" y="152" width="16" height="16" fill="#4a3728"/><rect x="280" y="152" width="16" height="16" fill="#4a3728"/><rect x="296" y="152" width="16" height="16" fill="#4a3728"/><rect x="312" y="152" width="16" height="16" fill="#4a3728"/><rect x="328" y="152" width="16" height="16" fill="#4a3728"/><rect x="344" y="152" width="16" height="16" fill="#4a3728"/><rect x="360" y="152" width="16" height="16" fill="#4a3728"/><rect x="376" y="152" width="16" height="16" fill="#4a3728"/><rect x="392" y="152" width="16" height="16" fill="#14120f"/><rect x="408" y="152" width="16" height="16" fill="#14120f"/><rect x="88" y="168" width="16" height="16" fill="#14120f"/><rect x="104" y="168" width="16" height="16" fill="#7a5537"/><rect x="120" y="168" width="16" height="16" fill="#7a5537"/><rect x="136" y="168" width="16" height="16" fill="#14120f"/><rect x="152" y="168" width="16" height="16" fill="#7a5537"/><rect x="168" y="168" width="16" height="16" fill="#7a5537"/><rect x="184" y="168" width="16" height="16" fill="#7a5537"/><rect x="200" y="168" width="16" height="16" fill="#7a5537"/><rect x="216" y="168" width="16" height="16" fill="#7a5537"/><rect x="232" y="168" width="16" height="16" fill="#7a5537"/><rect x="248" y="168" width="16" height="16" fill="#7a5537"/><rect x="264" y="168" width="16" height="16" fill="#7a5537"/><rect x="280" y="168" width="16" height="16" fill="#7a5537"/><rect x="296" y="168" width="16" height="16" fill="#7a5537"/><rect x="312" y="168" width="16" height="16" fill="#7a5537"/><rect x="328" y="168" width="16" height="16" fill="#7a5537"/><rect x="344" y="168" width="16" height="16" fill="#7a5537"/><rect x="360" y="168" width="16" height="16" fill="#7a5537"/><rect x="376" y="168" width="16" height="16" fill="#14120f"/><rect x="392" y="168" width="16" height="16" fill="#7a5537"/><rect x="408" y="168" width="16" height="16" fill="#7a5537"/><rect x="424" y="168" width="16" height="16" fill="#14120f"/><rect x="72" y="184" width="16" height="16" fill="#14120f"/><rect x="88" y="184" width="16" height="16" fill="#7a5537"/><rect x="104" y="184" width="16" height="16" fill="#7a5537"/><rect x="120" y="184" width="16" height="16" fill="#7a5537"/><rect x="136" y="184" width="16" height="16" fill="#14120f"/><rect x="152" y="184" width="16" height="16" fill="#7a5537"/><rect x="168" y="184" width="16" height="16" fill="#4a3728"/><rect x="184" y="184" width="16" height="16" fill="#4a3728"/><rect x="200" y="184" width="16" height="16" fill="#4a3728"/><rect x="216" y="184" width="16" height="16" fill="#4a3728"/><rect x="232" y="184" width="16" height="16" fill="#7a5537"/><rect x="248" y="184" width="16" height="16" fill="#7a5537"/><rect x="264" y="184" width="16" height="16" fill="#7a5537"/><rect x="280" y="184" width="16" height="16" fill="#7a5537"/><rect x="296" y="184" width="16" height="16" fill="#4a3728"/><rect x="312" y="184" width="16" height="16" fill="#4a3728"/><rect x="328" y="184" width="16" height="16" fill="#4a3728"/><rect x="344" y="184" width="16" height="16" fill="#4a3728"/><rect x="360" y="184" width="16" height="16" fill="#7a5537"/><rect x="376" y="184" width="16" height="16" fill="#14120f"/><rect x="392" y="184" width="16" height="16" fill="#7a5537"/><rect x="408" y="184" width="16" height="16" fill="#7a5537"/><rect x="424" y="184" width="16" height="16" fill="#7a5537"/><rect x="440" y="184" width="16" height="16" fill="#14120f"/><rect x="72" y="200" width="16" height="16" fill="#14120f"/><rect x="88" y="200" width="16" height="16" fill="#7a5537"/><rect x="104" y="200" width="16" height="16" fill="#7a5537"/><rect x="120" y="200" width="16" height="16" fill="#4a3728"/><rect x="136" y="200" width="16" height="16" fill="#14120f"/><rect x="152" y="200" width="16" height="16" fill="#7a5537"/><rect x="168" y="200" width="16" height="16" fill="#fdfaf3"/><rect x="184" y="200" width="16" height="16" fill="#14120f"/><rect x="200" y="200" width="16" height="16" fill="#14120f"/><rect x="216" y="200" width="16" height="16" fill="#fdfaf3"/><rect x="232" y="200" width="16" height="16" fill="#7a5537"/><rect x="248" y="200" width="16" height="16" fill="#7a5537"/><rect x="264" y="200" width="16" height="16" fill="#7a5537"/><rect x="280" y="200" width="16" height="16" fill="#7a5537"/><rect x="296" y="200" width="16" height="16" fill="#fdfaf3"/><rect x="312" y="200" width="16" height="16" fill="#14120f"/><rect x="328" y="200" width="16" height="16" fill="#14120f"/><rect x="344" y="200" width="16" height="16" fill="#fdfaf3"/><rect x="360" y="200" width="16" height="16" fill="#7a5537"/><rect x="376" y="200" width="16" height="16" fill="#14120f"/><rect x="392" y="200" width="16" height="16" fill="#4a3728"/><rect x="408" y="200" width="16" height="16" fill="#7a5537"/><rect x="424" y="200" width="16" height="16" fill="#7a5537"/><rect x="440" y="200" width="16" height="16" fill="#14120f"/><rect x="72" y="216" width="16" height="16" fill="#14120f"/><rect x="88" y="216" width="16" height="16" fill="#7a5537"/><rect x="104" y="216" width="16" height="16" fill="#7a5537"/><rect x="120" y="216" width="16" height="16" fill="#4a3728"/><rect x="136" y="216" width="16" height="16" fill="#14120f"/><rect x="152" y="216" width="16" height="16" fill="#7a5537"/><rect x="168" y="216" width="16" height="16" fill="#fdfaf3"/><rect x="184" y="216" width="16" height="16" fill="#14120f"/><rect x="200" y="216" width="16" height="16" fill="#14120f"/><rect x="216" y="216" width="16" height="16" fill="#fdfaf3"/><rect x="232" y="216" width="16" height="16" fill="#7a5537"/><rect x="248" y="216" width="16" height="16" fill="#7a5537"/><rect x="264" y="216" width="16" height="16" fill="#7a5537"/><rect x="280" y="216" width="16" height="16" fill="#7a5537"/><rect x="296" y="216" width="16" height="16" fill="#fdfaf3"/><rect x="312" y="216" width="16" height="16" fill="#14120f"/><rect x="328" y="216" width="16" height="16" fill="#14120f"/><rect x="344" y="216" width="16" height="16" fill="#fdfaf3"/><rect x="360" y="216" width="16" height="16" fill="#7a5537"/><rect x="376" y="216" width="16" height="16" fill="#14120f"/><rect x="392" y="216" width="16" height="16" fill="#4a3728"/><rect x="408" y="216" width="16" height="16" fill="#7a5537"/><rect x="424" y="216" width="16" height="16" fill="#7a5537"/><rect x="440" y="216" width="16" height="16" fill="#14120f"/><rect x="88" y="232" width="16" height="16" fill="#14120f"/><rect x="104" y="232" width="16" height="16" fill="#7a5537"/><rect x="120" y="232" width="16" height="16" fill="#7a5537"/><rect x="136" y="232" width="16" height="16" fill="#14120f"/><rect x="152" y="232" width="16" height="16" fill="#7a5537"/><rect x="168" y="232" width="16" height="16" fill="#7a5537"/><rect x="184" y="232" width="16" height="16" fill="#7a5537"/><rect x="200" y="232" width="16" height="16" fill="#d9bb95"/><rect x="216" y="232" width="16" height="16" fill="#d9bb95"/><rect x="232" y="232" width="16" height="16" fill="#d9bb95"/><rect x="248" y="232" width="16" height="16" fill="#d9bb95"/><rect x="264" y="232" width="16" height="16" fill="#d9bb95"/><rect x="280" y="232" width="16" height="16" fill="#d9bb95"/><rect x="296" y="232" width="16" height="16" fill="#d9bb95"/><rect x="312" y="232" width="16" height="16" fill="#d9bb95"/><rect x="328" y="232" width="16" height="16" fill="#7a5537"/><rect x="344" y="232" width="16" height="16" fill="#7a5537"/><rect x="360" y="232" width="16" height="16" fill="#7a5537"/><rect x="376" y="232" width="16" height="16" fill="#14120f"/><rect x="392" y="232" width="16" height="16" fill="#7a5537"/><rect x="408" y="232" width="16" height="16" fill="#7a5537"/><rect x="424" y="232" width="16" height="16" fill="#14120f"/><rect x="104" y="248" width="16" height="16" fill="#14120f"/><rect x="120" y="248" width="16" height="16" fill="#14120f"/><rect x="136" y="248" width="16" height="16" fill="#14120f"/><rect x="152" y="248" width="16" height="16" fill="#7a5537"/><rect x="168" y="248" width="16" height="16" fill="#7a5537"/><rect x="184" y="248" width="16" height="16" fill="#d9bb95"/><rect x="200" y="248" width="16" height="16" fill="#d9bb95"/><rect x="216" y="248" width="16" height="16" fill="#4a3728"/><rect x="232" y="248" width="16" height="16" fill="#d9bb95"/><rect x="248" y="248" width="16" height="16" fill="#d9bb95"/><rect x="264" y="248" width="16" height="16" fill="#d9bb95"/><rect x="280" y="248" width="16" height="16" fill="#d9bb95"/><rect x="296" y="248" width="16" height="16" fill="#4a3728"/><rect x="312" y="248" width="16" height="16" fill="#d9bb95"/><rect x="328" y="248" width="16" height="16" fill="#d9bb95"/><rect x="344" y="248" width="16" height="16" fill="#7a5537"/><rect x="360" y="248" width="16" height="16" fill="#7a5537"/><rect x="376" y="248" width="16" height="16" fill="#14120f"/><rect x="392" y="248" width="16" height="16" fill="#14120f"/><rect x="408" y="248" width="16" height="16" fill="#14120f"/><rect x="136" y="264" width="16" height="16" fill="#14120f"/><rect x="152" y="264" width="16" height="16" fill="#7a5537"/><rect x="168" y="264" width="16" height="16" fill="#7a5537"/><rect x="184" y="264" width="16" height="16" fill="#d9bb95"/><rect x="200" y="264" width="16" height="16" fill="#d9bb95"/><rect x="216" y="264" width="16" height="16" fill="#d9bb95"/><rect x="232" y="264" width="16" height="16" fill="#4a3728"/><rect x="248" y="264" width="16" height="16" fill="#4a3728"/><rect x="264" y="264" width="16" height="16" fill="#4a3728"/><rect x="280" y="264" width="16" height="16" fill="#4a3728"/><rect x="296" y="264" width="16" height="16" fill="#d9bb95"/><rect x="312" y="264" width="16" height="16" fill="#d9bb95"/><rect x="328" y="264" width="16" height="16" fill="#d9bb95"/><rect x="344" y="264" width="16" height="16" fill="#7a5537"/><rect x="360" y="264" width="16" height="16" fill="#7a5537"/><rect x="376" y="264" width="16" height="16" fill="#14120f"/><rect x="152" y="280" width="16" height="16" fill="#14120f"/><rect x="168" y="280" width="16" height="16" fill="#7a5537"/><rect x="184" y="280" width="16" height="16" fill="#7a5537"/><rect x="200" y="280" width="16" height="16" fill="#d9bb95"/><rect x="216" y="280" width="16" height="16" fill="#d9bb95"/><rect x="232" y="280" width="16" height="16" fill="#d9bb95"/><rect x="248" y="280" width="16" height="16" fill="#d9bb95"/><rect x="264" y="280" width="16" height="16" fill="#d9bb95"/><rect x="280" y="280" width="16" height="16" fill="#d9bb95"/><rect x="296" y="280" width="16" height="16" fill="#f4f1ea"/><rect x="312" y="280" width="16" height="16" fill="#f4f1ea"/><rect x="328" y="280" width="16" height="16" fill="#f4f1ea"/><rect x="344" y="280" width="16" height="16" fill="#f4f1ea"/><rect x="360" y="280" width="16" height="16" fill="#f4f1ea"/><rect x="376" y="280" width="16" height="16" fill="#f4f1ea"/><rect x="392" y="280" width="16" height="16" fill="#f4f1ea"/><rect x="408" y="280" width="16" height="16" fill="#ff5b1a"/><rect x="184" y="296" width="16" height="16" fill="#14120f"/><rect x="200" y="296" width="16" height="16" fill="#7a5537"/><rect x="216" y="296" width="16" height="16" fill="#7a5537"/><rect x="232" y="296" width="16" height="16" fill="#7a5537"/><rect x="248" y="296" width="16" height="16" fill="#7a5537"/><rect x="264" y="296" width="16" height="16" fill="#7a5537"/><rect x="280" y="296" width="16" height="16" fill="#7a5537"/><rect x="296" y="296" width="16" height="16" fill="#7a5537"/><rect x="312" y="296" width="16" height="16" fill="#7a5537"/><rect x="328" y="296" width="16" height="16" fill="#14120f"/><rect x="216" y="312" width="16" height="16" fill="#14120f"/><rect x="232" y="312" width="16" height="16" fill="#7a5537"/><rect x="248" y="312" width="16" height="16" fill="#7a5537"/><rect x="264" y="312" width="16" height="16" fill="#7a5537"/><rect x="280" y="312" width="16" height="16" fill="#7a5537"/><rect x="296" y="312" width="16" height="16" fill="#14120f"/><rect x="152" y="328" width="16" height="16" fill="#14120f"/><rect x="168" y="328" width="16" height="16" fill="#3b2a1d"/><rect x="184" y="328" width="16" height="16" fill="#3b2a1d"/><rect x="200" y="328" width="16" height="16" fill="#3b2a1d"/><rect x="216" y="328" width="16" height="16" fill="#3b2a1d"/><rect x="232" y="328" width="16" height="16" fill="#7a5537"/><rect x="248" y="328" width="16" height="16" fill="#7a5537"/><rect x="264" y="328" width="16" height="16" fill="#7a5537"/><rect x="280" y="328" width="16" height="16" fill="#7a5537"/><rect x="296" y="328" width="16" height="16" fill="#3b2a1d"/><rect x="312" y="328" width="16" height="16" fill="#3b2a1d"/><rect x="328" y="328" width="16" height="16" fill="#3b2a1d"/><rect x="344" y="328" width="16" height="16" fill="#3b2a1d"/><rect x="360" y="328" width="16" height="16" fill="#14120f"/><rect x="120" y="344" width="16" height="16" fill="#14120f"/><rect x="136" y="344" width="16" height="16" fill="#3b2a1d"/><rect x="152" y="344" width="16" height="16" fill="#3b2a1d"/><rect x="168" y="344" width="16" height="16" fill="#3b2a1d"/><rect x="184" y="344" width="16" height="16" fill="#3b2a1d"/><rect x="200" y="344" width="16" height="16" fill="#3b2a1d"/><rect x="216" y="344" width="16" height="16" fill="#fdfaf3"/><rect x="232" y="344" width="16" height="16" fill="#fdfaf3"/><rect x="248" y="344" width="16" height="16" fill="#fdfaf3"/><rect x="264" y="344" width="16" height="16" fill="#fdfaf3"/><rect x="280" y="344" width="16" height="16" fill="#fdfaf3"/><rect x="296" y="344" width="16" height="16" fill="#fdfaf3"/><rect x="312" y="344" width="16" height="16" fill="#3b2a1d"/><rect x="328" y="344" width="16" height="16" fill="#3b2a1d"/><rect x="344" y="344" width="16" height="16" fill="#3b2a1d"/><rect x="360" y="344" width="16" height="16" fill="#3b2a1d"/><rect x="376" y="344" width="16" height="16" fill="#3b2a1d"/><rect x="392" y="344" width="16" height="16" fill="#14120f"/><rect x="104" y="360" width="16" height="16" fill="#14120f"/><rect x="120" y="360" width="16" height="16" fill="#3b2a1d"/><rect x="136" y="360" width="16" height="16" fill="#3b2a1d"/><rect x="152" y="360" width="16" height="16" fill="#3b2a1d"/><rect x="168" y="360" width="16" height="16" fill="#3b2a1d"/><rect x="184" y="360" width="16" height="16" fill="#3b2a1d"/><rect x="200" y="360" width="16" height="16" fill="#3b2a1d"/><rect x="216" y="360" width="16" height="16" fill="#3b2a1d"/><rect x="232" y="360" width="16" height="16" fill="#fdfaf3"/><rect x="248" y="360" width="16" height="16" fill="#C4362B"/><rect x="264" y="360" width="16" height="16" fill="#C4362B"/><rect x="280" y="360" width="16" height="16" fill="#fdfaf3"/><rect x="296" y="360" width="16" height="16" fill="#3b2a1d"/><rect x="312" y="360" width="16" height="16" fill="#3b2a1d"/><rect x="328" y="360" width="16" height="16" fill="#3b2a1d"/><rect x="344" y="360" width="16" height="16" fill="#3b2a1d"/><rect x="360" y="360" width="16" height="16" fill="#3b2a1d"/><rect x="376" y="360" width="16" height="16" fill="#3b2a1d"/><rect x="392" y="360" width="16" height="16" fill="#3b2a1d"/><rect x="408" y="360" width="16" height="16" fill="#14120f"/><rect x="104" y="376" width="16" height="16" fill="#14120f"/><rect x="120" y="376" width="16" height="16" fill="#3b2a1d"/><rect x="136" y="376" width="16" height="16" fill="#3b2a1d"/><rect x="152" y="376" width="16" height="16" fill="#3b2a1d"/><rect x="168" y="376" width="16" height="16" fill="#3b2a1d"/><rect x="184" y="376" width="16" height="16" fill="#3b2a1d"/><rect x="200" y="376" width="16" height="16" fill="#3b2a1d"/><rect x="216" y="376" width="16" height="16" fill="#3b2a1d"/><rect x="232" y="376" width="16" height="16" fill="#3b2a1d"/><rect x="248" y="376" width="16" height="16" fill="#C4362B"/><rect x="264" y="376" width="16" height="16" fill="#C4362B"/><rect x="280" y="376" width="16" height="16" fill="#3b2a1d"/><rect x="296" y="376" width="16" height="16" fill="#3b2a1d"/><rect x="312" y="376" width="16" height="16" fill="#3b2a1d"/><rect x="328" y="376" width="16" height="16" fill="#3b2a1d"/><rect x="344" y="376" width="16" height="16" fill="#3b2a1d"/><rect x="360" y="376" width="16" height="16" fill="#3b2a1d"/><rect x="376" y="376" width="16" height="16" fill="#3b2a1d"/><rect x="392" y="376" width="16" height="16" fill="#3b2a1d"/><rect x="408" y="376" width="16" height="16" fill="#14120f"/><rect x="104" y="392" width="16" height="16" fill="#14120f"/><rect x="120" y="392" width="16" height="16" fill="#3b2a1d"/><rect x="136" y="392" width="16" height="16" fill="#3b2a1d"/><rect x="152" y="392" width="16" height="16" fill="#3b2a1d"/><rect x="168" y="392" width="16" height="16" fill="#3b2a1d"/><rect x="184" y="392" width="16" height="16" fill="#3b2a1d"/><rect x="200" y="392" width="16" height="16" fill="#3b2a1d"/><rect x="216" y="392" width="16" height="16" fill="#3b2a1d"/><rect x="232" y="392" width="16" height="16" fill="#3b2a1d"/><rect x="248" y="392" width="16" height="16" fill="#C4362B"/><rect x="264" y="392" width="16" height="16" fill="#C4362B"/><rect x="280" y="392" width="16" height="16" fill="#3b2a1d"/><rect x="296" y="392" width="16" height="16" fill="#3b2a1d"/><rect x="312" y="392" width="16" height="16" fill="#3b2a1d"/><rect x="328" y="392" width="16" height="16" fill="#3b2a1d"/><rect x="344" y="392" width="16" height="16" fill="#3b2a1d"/><rect x="360" y="392" width="16" height="16" fill="#3b2a1d"/><rect x="376" y="392" width="16" height="16" fill="#3b2a1d"/><rect x="392" y="392" width="16" height="16" fill="#3b2a1d"/><rect x="408" y="392" width="16" height="16" fill="#14120f"/><rect x="104" y="408" width="16" height="16" fill="#14120f"/><rect x="120" y="408" width="16" height="16" fill="#3b2a1d"/><rect x="136" y="408" width="16" height="16" fill="#3b2a1d"/><rect x="152" y="408" width="16" height="16" fill="#3b2a1d"/><rect x="168" y="408" width="16" height="16" fill="#3b2a1d"/><rect x="184" y="408" width="16" height="16" fill="#3b2a1d"/><rect x="200" y="408" width="16" height="16" fill="#3b2a1d"/><rect x="216" y="408" width="16" height="16" fill="#3b2a1d"/><rect x="232" y="408" width="16" height="16" fill="#3b2a1d"/><rect x="248" y="408" width="16" height="16" fill="#C4362B"/><rect x="264" y="408" width="16" height="16" fill="#C4362B"/><rect x="280" y="408" width="16" height="16" fill="#3b2a1d"/><rect x="296" y="408" width="16" height="16" fill="#3b2a1d"/><rect x="312" y="408" width="16" height="16" fill="#3b2a1d"/><rect x="328" y="408" width="16" height="16" fill="#3b2a1d"/><rect x="344" y="408" width="16" height="16" fill="#3b2a1d"/><rect x="360" y="408" width="16" height="16" fill="#3b2a1d"/><rect x="376" y="408" width="16" height="16" fill="#3b2a1d"/><rect x="392" y="408" width="16" height="16" fill="#3b2a1d"/><rect x="408" y="408" width="16" height="16" fill="#14120f"/><rect x="104" y="424" width="16" height="16" fill="#14120f"/><rect x="120" y="424" width="16" height="16" fill="#3b2a1d"/><rect x="136" y="424" width="16" height="16" fill="#3b2a1d"/><rect x="152" y="424" width="16" height="16" fill="#3b2a1d"/><rect x="168" y="424" width="16" height="16" fill="#3b2a1d"/><rect x="184" y="424" width="16" height="16" fill="#3b2a1d"/><rect x="200" y="424" width="16" height="16" fill="#3b2a1d"/><rect x="216" y="424" width="16" height="16" fill="#3b2a1d"/><rect x="232" y="424" width="16" height="16" fill="#3b2a1d"/><rect x="248" y="424" width="16" height="16" fill="#C4362B"/><rect x="264" y="424" width="16" height="16" fill="#C4362B"/><rect x="280" y="424" width="16" height="16" fill="#3b2a1d"/><rect x="296" y="424" width="16" height="16" fill="#3b2a1d"/><rect x="312" y="424" width="16" height="16" fill="#3b2a1d"/><rect x="328" y="424" width="16" height="16" fill="#3b2a1d"/><rect x="344" y="424" width="16" height="16" fill="#3b2a1d"/><rect x="360" y="424" width="16" height="16" fill="#3b2a1d"/><rect x="376" y="424" width="16" height="16" fill="#3b2a1d"/><rect x="392" y="424" width="16" height="16" fill="#3b2a1d"/><rect x="408" y="424" width="16" height="16" fill="#14120f"/><rect x="104" y="440" width="16" height="16" fill="#14120f"/><rect x="120" y="440" width="16" height="16" fill="#3b2a1d"/><rect x="136" y="440" width="16" height="16" fill="#3b2a1d"/><rect x="152" y="440" width="16" height="16" fill="#3b2a1d"/><rect x="168" y="440" width="16" height="16" fill="#3b2a1d"/><rect x="184" y="440" width="16" height="16" fill="#3b2a1d"/><rect x="200" y="440" width="16" height="16" fill="#3b2a1d"/><rect x="216" y="440" width="16" height="16" fill="#3b2a1d"/><rect x="232" y="440" width="16" height="16" fill="#3b2a1d"/><rect x="248" y="440" width="16" height="16" fill="#C4362B"/><rect x="264" y="440" width="16" height="16" fill="#C4362B"/><rect x="280" y="440" width="16" height="16" fill="#3b2a1d"/><rect x="296" y="440" width="16" height="16" fill="#3b2a1d"/><rect x="312" y="440" width="16" height="16" fill="#3b2a1d"/><rect x="328" y="440" width="16" height="16" fill="#3b2a1d"/><rect x="344" y="440" width="16" height="16" fill="#3b2a1d"/><rect x="360" y="440" width="16" height="16" fill="#3b2a1d"/><rect x="376" y="440" width="16" height="16" fill="#3b2a1d"/><rect x="392" y="440" width="16" height="16" fill="#3b2a1d"/><rect x="408" y="440" width="16" height="16" fill="#14120f"/>
</svg>